<svg width="1500" height="300" viewBox="0 0 1500 300" fill="none" xmlns="http://www.w3.org/2000/svg">
<mask id="mask0_1244_134" style="mask-type:alpha" maskUnits="userSpaceOnUse" x="0" y="0" width="1500" height="300">
<rect width="300" height="300" fill="#D9D9D9"/>
<rect x="300" width="300" height="300" fill="#D9D9D9"/>
<rect x="600" width="300" height="300" fill="#D9D9D9"/>
<rect x="900" width="300" height="300" fill="#D9D9D9"/>
<rect x="1200" width="300" height="300" fill="#D9D9D9"/>
</mask>
<g mask="url(#mask0_1244_134)">
<path d="M1331.69 30.0698C1342.36 20.3858 1358.64 20.3858 1369.31 30.0698L1398.53 56.5784C1403.96 61.5038 1411.1 64.104 1418.43 63.8204L1457.85 62.2945C1472.25 61.737 1484.72 72.2023 1486.68 86.4816L1492.02 125.569C1493.01 132.832 1496.81 139.416 1502.61 143.907L1533.79 168.077C1545.18 176.907 1548 192.941 1540.32 205.134L1519.29 238.511C1515.38 244.713 1514.06 252.2 1515.61 259.364L1523.96 297.922C1527.01 312.007 1518.87 326.107 1505.14 330.509L1467.58 342.558C1460.6 344.797 1454.77 349.683 1451.36 356.168L1432.97 391.071C1426.25 403.822 1410.95 409.39 1397.61 403.941L1361.09 389.024C1354.3 386.253 1346.7 386.253 1339.91 389.024L1303.39 403.941C1290.05 409.39 1274.75 403.822 1268.03 391.071L1249.64 356.168C1246.23 349.683 1240.4 344.797 1233.42 342.558L1195.86 330.509C1182.13 326.107 1173.99 312.007 1177.04 297.922L1185.39 259.364C1186.94 252.2 1185.62 244.713 1181.71 238.511L1160.68 205.134C1153 192.941 1155.82 176.907 1167.21 168.077L1198.39 143.907C1204.19 139.416 1207.99 132.832 1208.98 125.569L1214.32 86.4816C1216.28 72.2023 1228.75 61.737 1243.15 62.2945L1282.57 63.8204C1289.9 64.104 1297.04 61.5038 1302.47 56.5784L1331.69 30.0698Z" fill="#EC645E"/>
<rect x="915" y="49" width="271" height="557" rx="135.5" fill="#CF9BF5"/>
<path d="M704.5 59H750V377.5H505L626 105C644 66.4999 670.5 58.9999 704.5 59Z" fill="#59ABF6"/>
<path d="M794.5 59H749V377.5H994L873 105C855 66.4999 828.5 58.9999 794.5 59Z" fill="#59ABF6"/>
<circle cx="150.5" cy="233.5" r="184.5" fill="#F7C644"/>
<path d="M359.067 102.5C399.482 32.5 500.518 32.5 540.933 102.5L661.31 311C701.725 381 651.207 468.5 570.378 468.5H329.622C248.793 468.5 198.275 381 238.69 311L359.067 102.5Z" fill="#76C25C"/>
<path d="M414.079 142H450.079V178C421.079 176.5 414.734 155.7 411.079 149C408.078 143.5 412.079 142 414.079 142Z" fill="#2E4D23" fill-opacity="0.93"/>
<mask id="mask1_1244_134" style="mask-type:alpha" maskUnits="userSpaceOnUse" x="410" y="142" width="41" height="36">
<path d="M414.079 142H450.079V178C421.079 176.5 414.734 155.7 411.079 149C408.078 143.5 412.079 142 414.079 142Z" fill="#2E4D23"/>
</mask>
<g mask="url(#mask1_1244_134)">
<path d="M431.078 150.5C422.278 150.5 420.078 143.167 420.078 139.5L450.078 142V150.5H431.078Z" fill="white"/>
<path d="M451.578 160.5C433.978 159.3 426.578 169.333 425.078 174.5L451.578 182.5V160.5Z" fill="#AA6147"/>
</g>
<circle cx="426" cy="115" r="20" fill="#D3ECCC"/>
<circle cx="430" cy="115" r="12" fill="black"/>
<circle cx="421" cy="108" r="5" fill="#D3ECCC" fill-opacity="0.93"/>
<path d="M485.999 142H449.999V178C478.999 176.5 485.344 155.7 488.999 149C492 143.5 487.999 142 485.999 142Z" fill="#2E4D23" fill-opacity="0.93"/>
<mask id="mask2_1244_134" style="mask-type:alpha" maskUnits="userSpaceOnUse" x="450" y="142" width="41" height="36">
<path d="M485.999 142H449.999V178C478.999 176.5 485.344 155.7 488.999 149C492 143.5 487.999 142 485.999 142Z" fill="#2E4D23"/>
</mask>
<g mask="url(#mask2_1244_134)">
<path d="M469 150.5C477.8 150.5 480 143.167 480 139.5L450 142V150.5H469Z" fill="white"/>
<path d="M448.5 160.5C466.1 159.3 473.5 169.333 475 174.5L448.5 182.5V160.5Z" fill="#AA6147"/>
</g>
<path d="M114.079 136H150.079V172C121.079 170.5 114.734 149.7 111.079 143C108.078 137.5 112.079 136 114.079 136Z" fill="#DA6324"/>
<mask id="mask3_1244_134" style="mask-type:alpha" maskUnits="userSpaceOnUse" x="110" y="136" width="41" height="36">
<path d="M114.079 136H150.079V172C121.079 170.5 114.734 149.7 111.079 143C108.078 137.5 112.079 136 114.079 136Z" fill="#2E4D23"/>
</mask>
<g mask="url(#mask3_1244_134)">
<path d="M131.078 144.5C122.278 144.5 120.078 137.167 120.078 133.5L150.078 136V144.5H131.078Z" fill="white"/>
<path d="M151.578 164.5C133.978 163.3 126.578 173.333 125.078 178.5L151.578 186.5V164.5Z" fill="white"/>
</g>
<path d="M185.999 136H149.999V172C178.999 170.5 185.344 149.7 188.999 143C192 137.5 187.999 136 185.999 136Z" fill="#DA6324"/>
<mask id="mask4_1244_134" style="mask-type:alpha" maskUnits="userSpaceOnUse" x="150" y="136" width="41" height="36">
<path d="M185.999 136H149.999V172C178.999 170.5 185.344 149.7 188.999 143C192 137.5 187.999 136 185.999 136Z" fill="#F7C644"/>
</mask>
<g mask="url(#mask4_1244_134)">
<path d="M169 144.5C177.8 144.5 180 137.167 180 133.5L150 136V144.5H169Z" fill="white"/>
<path d="M148.5 164.5C166.1 163.3 173.5 173.333 175 178.5L148.5 186.5V164.5Z" fill="white"/>
</g>
<circle cx="20" cy="20" r="20" transform="matrix(-1 0 0 1 494.078 95)" fill="#D3ECCC"/>
<circle cx="12" cy="12" r="12" transform="matrix(-1 0 0 1 482.078 103)" fill="black"/>
<circle cx="5" cy="5" r="5" transform="matrix(-1 0 0 1 484.078 103)" fill="#D3ECCC" fill-opacity="0.93"/>
<circle cx="126" cy="107" r="20" fill="#F7E2A9"/>
<circle cx="130" cy="107" r="12" fill="black"/>
<circle cx="121" cy="100" r="5" fill="#F7E1A9" fill-opacity="0.9"/>
<circle cx="20" cy="20" r="20" transform="matrix(-1 0 0 1 194.078 87)" fill="#F7E2A9"/>
<circle cx="12" cy="12" r="12" transform="matrix(-1 0 0 1 182.078 95)" fill="black"/>
<circle cx="5" cy="5" r="5" transform="matrix(-1 0 0 1 184.078 95)" fill="#F7E1A9" fill-opacity="0.9"/>
<circle cx="20" cy="20" r="20" transform="matrix(-1 0 0 1 794.078 95)" fill="#C9E5FB"/>
<circle cx="12" cy="12" r="12" transform="matrix(-1 0 0 1 782.078 103)" fill="black"/>
<circle cx="5" cy="5" r="5" transform="matrix(-1 0 0 1 784.078 103)" fill="#C9E5FB" fill-opacity="0.78"/>
<circle cx="726" cy="115" r="20" fill="#C9E5FB"/>
<circle cx="730" cy="115" r="12" fill="black"/>
<circle cx="721" cy="108" r="5" fill="#C9E5FB" fill-opacity="0.78"/>
<path d="M773 144C773 144 766.233 156 749.617 156C733 156 728.032 144 728.032 144" stroke="black" stroke-width="5" stroke-linecap="round"/>
<circle cx="20" cy="20" r="20" transform="matrix(-1 0 0 1 1094.08 103)" fill="#F0E0FC"/>
<circle cx="12" cy="12" r="12" transform="matrix(-1 0 0 1 1082.08 111)" fill="black"/>
<circle cx="5" cy="5" r="5" transform="matrix(-1 0 0 1 1084.08 111)" fill="#F0E0FC" fill-opacity="0.88"/>
<circle cx="1026" cy="123" r="20" fill="#F0E0FC"/>
<circle cx="1030" cy="123" r="12" fill="black"/>
<circle cx="1021" cy="116" r="5" fill="#F0E0FC" fill-opacity="0.88"/>
<line x1="1026.5" y1="159.5" x2="1073.5" y2="159.5" stroke="black" stroke-width="5" stroke-linecap="round"/>
<circle cx="1374.08" cy="133" r="20" fill="#F6CDCC"/>
<circle cx="1378.08" cy="133" r="12" fill="black"/>
<circle cx="1369.08" cy="126" r="5" fill="#F6CDCC" fill-opacity="0.9"/>
<circle cx="1326" cy="133" r="20" fill="#F6CDCC"/>
<circle cx="1330" cy="133" r="12" fill="black"/>
<circle cx="1321" cy="126" r="5" fill="#F6CDCC" fill-opacity="0.9"/>
<path d="M1334.95 100.318C1334.95 100.318 1333.04 109.381 1322.17 112.992C1311.3 116.602 1305.53 110.09 1305.53 110.09" stroke="black" stroke-width="5" stroke-linecap="round"/>
<path d="M1375.1 176.328C1375.1 176.328 1372.71 164.963 1359.08 160.435C1345.44 155.907 1338.21 164.074 1338.21 164.074" stroke="black" stroke-width="5" stroke-linecap="round"/>
<path d="M1368.52 101C1368.52 101 1370.43 110.063 1381.3 113.673C1392.17 117.284 1397.94 110.771 1397.94 110.771" stroke="black" stroke-width="5" stroke-linecap="round"/>
<path d="M126.638 101.675C126.581 101.49 126.794 101.339 126.949 101.456L127.524 101.887C127.594 101.939 127.689 101.94 127.759 101.89L128.347 101.476C128.506 101.365 128.714 101.521 128.652 101.704L128.42 102.385C128.392 102.467 128.42 102.558 128.489 102.61L129.064 103.041C129.219 103.157 129.135 103.404 128.941 103.401L128.223 103.39C128.136 103.389 128.058 103.444 128.03 103.526L127.798 104.206C127.735 104.389 127.475 104.386 127.418 104.2L127.206 103.513C127.18 103.431 127.104 103.374 127.017 103.372L126.298 103.362C126.105 103.359 126.028 103.11 126.186 102.998L126.774 102.584C126.845 102.534 126.876 102.445 126.85 102.362L126.638 101.675Z" fill="#F7C644"/>
<path d="M133.847 104.761C133.79 104.576 134.003 104.426 134.158 104.542L134.733 104.973C134.803 105.025 134.898 105.026 134.968 104.977L135.556 104.563C135.715 104.451 135.923 104.607 135.861 104.791L135.629 105.471C135.601 105.553 135.629 105.644 135.698 105.696L136.273 106.127C136.428 106.243 136.344 106.49 136.15 106.487L135.431 106.476C135.345 106.475 135.267 106.53 135.239 106.612L135.007 107.292C134.944 107.476 134.684 107.472 134.627 107.287L134.415 106.6C134.389 106.517 134.313 106.46 134.226 106.459L133.507 106.448C133.314 106.445 133.237 106.196 133.395 106.085L133.983 105.671C134.054 105.621 134.085 105.531 134.059 105.448L133.847 104.761Z" fill="#F7C644"/>
<path d="M126.847 108.761C126.79 108.576 127.003 108.426 127.158 108.542L127.733 108.973C127.803 109.025 127.898 109.026 127.968 108.977L128.556 108.563C128.715 108.451 128.923 108.607 128.861 108.791L128.629 109.471C128.601 109.553 128.629 109.644 128.698 109.696L129.273 110.127C129.428 110.243 129.344 110.49 129.15 110.487L128.431 110.476C128.345 110.475 128.267 110.53 128.239 110.612L128.007 111.292C127.944 111.476 127.684 111.472 127.627 111.287L127.415 110.6C127.389 110.517 127.313 110.46 127.226 110.459L126.507 110.448C126.314 110.445 126.237 110.196 126.395 110.085L126.983 109.671C127.054 109.621 127.085 109.531 127.059 109.448L126.847 108.761Z" fill="#F7C644"/>
<path d="M165.847 101.761C165.79 101.576 166.003 101.426 166.158 101.542L166.733 101.973C166.803 102.025 166.898 102.026 166.968 101.977L167.556 101.563C167.715 101.451 167.923 101.607 167.861 101.791L167.629 102.471C167.601 102.553 167.629 102.644 167.698 102.696L168.273 103.127C168.428 103.243 168.344 103.49 168.15 103.487L167.431 103.476C167.345 103.475 167.267 103.53 167.239 103.612L167.007 104.292C166.944 104.476 166.684 104.472 166.627 104.287L166.415 103.6C166.389 103.517 166.313 103.46 166.226 103.459L165.507 103.448C165.314 103.445 165.237 103.196 165.395 103.085L165.983 102.671C166.054 102.621 166.085 102.531 166.059 102.448L165.847 101.761Z" fill="#F7C644"/>
<path d="M173.056 104.847C172.999 104.662 173.212 104.512 173.367 104.628L173.942 105.059C174.012 105.111 174.107 105.113 174.177 105.063L174.765 104.649C174.924 104.537 175.132 104.694 175.07 104.877L174.838 105.557C174.81 105.639 174.838 105.73 174.907 105.782L175.482 106.213C175.637 106.329 175.553 106.576 175.359 106.573L174.64 106.563C174.554 106.561 174.476 106.616 174.448 106.698L174.216 107.379C174.153 107.562 173.893 107.558 173.836 107.373L173.624 106.686C173.598 106.603 173.522 106.546 173.435 106.545L172.716 106.534C172.523 106.532 172.446 106.282 172.604 106.171L173.192 105.757C173.263 105.707 173.294 105.617 173.268 105.534L173.056 104.847Z" fill="#F7C644"/>
<path d="M166.056 108.847C165.999 108.662 166.212 108.512 166.367 108.628L166.942 109.059C167.012 109.111 167.107 109.113 167.177 109.063L167.765 108.649C167.924 108.537 168.132 108.694 168.07 108.877L167.838 109.557C167.81 109.639 167.838 109.73 167.907 109.782L168.482 110.213C168.637 110.329 168.553 110.576 168.359 110.573L167.64 110.563C167.554 110.561 167.476 110.616 167.448 110.698L167.216 111.379C167.153 111.562 166.893 111.558 166.836 111.373L166.624 110.686C166.598 110.603 166.522 110.546 166.435 110.545L165.716 110.534C165.523 110.532 165.446 110.282 165.604 110.171L166.192 109.757C166.263 109.707 166.294 109.617 166.268 109.534L166.056 108.847Z" fill="#F7C644"/>
<ellipse cx="1302.5" cy="162" rx="21.5" ry="12" fill="url(#paint0_radial_1244_134)"/>
<ellipse cx="1403.5" cy="159" rx="21.5" ry="12" fill="url(#paint1_radial_1244_134)"/>
</g>
<defs>
<radialGradient id="paint0_radial_1244_134" cx="0" cy="0" r="1" gradientUnits="userSpaceOnUse" gradientTransform="translate(1302.5 162) rotate(90) scale(12 21.5)">
<stop stop-color="#E0170E"/>
<stop offset="1" stop-color="#EC645E"/>
</radialGradient>
<radialGradient id="paint1_radial_1244_134" cx="0" cy="0" r="1" gradientUnits="userSpaceOnUse" gradientTransform="translate(1403.5 159) rotate(90) scale(12 21.5)">
<stop stop-color="#E0170E"/>
<stop offset="1" stop-color="#EC645E"/>
</radialGradient>
</defs>
</svg>
