<svg width="1497" height="80" viewBox="0 0 1497 80" fill="none" xmlns="http://www.w3.org/2000/svg">
<rect width="3" height="80" fill="url(#paint0_linear_1248_454)"/>
<rect x="9" width="3" height="80" fill="url(#paint1_linear_1248_454)"/>
<rect x="18" width="3" height="80" fill="url(#paint2_linear_1248_454)"/>
<rect x="27" width="3" height="80" fill="url(#paint3_linear_1248_454)"/>
<rect x="36" width="3" height="80" fill="url(#paint4_linear_1248_454)"/>
<rect x="45" width="3" height="80" fill="url(#paint5_linear_1248_454)"/>
<rect x="54" width="3" height="80" fill="url(#paint6_linear_1248_454)"/>
<rect x="63" width="3" height="80" fill="url(#paint7_linear_1248_454)"/>
<rect x="72" width="3" height="80" fill="url(#paint8_linear_1248_454)"/>
<rect x="81" width="3" height="80" fill="url(#paint9_linear_1248_454)"/>
<rect x="90" width="3" height="80" fill="url(#paint10_linear_1248_454)"/>
<rect x="99" width="3" height="80" fill="url(#paint11_linear_1248_454)"/>
<rect x="108" width="3" height="80" fill="url(#paint12_linear_1248_454)"/>
<rect x="117" width="3" height="80" fill="url(#paint13_linear_1248_454)"/>
<rect x="126" width="3" height="80" fill="url(#paint14_linear_1248_454)"/>
<rect x="135" width="3" height="80" fill="url(#paint15_linear_1248_454)"/>
<rect x="144" width="3" height="80" fill="url(#paint16_linear_1248_454)"/>
<rect x="153" width="3" height="80" fill="url(#paint17_linear_1248_454)"/>
<rect x="162" width="3" height="80" fill="url(#paint18_linear_1248_454)"/>
<rect x="171" width="3" height="80" fill="url(#paint19_linear_1248_454)"/>
<rect x="180" width="3" height="80" fill="url(#paint20_linear_1248_454)"/>
<rect x="189" width="3" height="80" fill="url(#paint21_linear_1248_454)"/>
<rect x="198" width="3" height="80" fill="url(#paint22_linear_1248_454)"/>
<rect x="207" width="3" height="80" fill="url(#paint23_linear_1248_454)"/>
<rect x="216" width="3" height="80" fill="url(#paint24_linear_1248_454)"/>
<rect x="225" width="3" height="80" fill="url(#paint25_linear_1248_454)"/>
<rect x="234" width="3" height="80" fill="url(#paint26_linear_1248_454)"/>
<rect x="243" width="3" height="80" fill="url(#paint27_linear_1248_454)"/>
<rect x="252" width="3" height="80" fill="url(#paint28_linear_1248_454)"/>
<rect x="261" width="3" height="80" fill="url(#paint29_linear_1248_454)"/>
<rect x="270" width="3" height="80" fill="url(#paint30_linear_1248_454)"/>
<rect x="279" width="3" height="80" fill="url(#paint31_linear_1248_454)"/>
<rect x="288" width="3" height="80" fill="url(#paint32_linear_1248_454)"/>
<rect x="297" width="3" height="80" fill="url(#paint33_linear_1248_454)"/>
<rect x="306" width="3" height="80" fill="url(#paint34_linear_1248_454)"/>
<rect x="315" width="3" height="80" fill="url(#paint35_linear_1248_454)"/>
<rect x="324" width="3" height="80" fill="url(#paint36_linear_1248_454)"/>
<rect x="333" width="3" height="80" fill="url(#paint37_linear_1248_454)"/>
<rect x="342" width="3" height="80" fill="url(#paint38_linear_1248_454)"/>
<rect x="351" width="3" height="80" fill="url(#paint39_linear_1248_454)"/>
<rect x="360" width="3" height="80" fill="url(#paint40_linear_1248_454)"/>
<rect x="369" width="3" height="80" fill="url(#paint41_linear_1248_454)"/>
<rect x="378" width="3" height="80" fill="url(#paint42_linear_1248_454)"/>
<rect x="387" width="3" height="80" fill="url(#paint43_linear_1248_454)"/>
<rect x="396" width="3" height="80" fill="url(#paint44_linear_1248_454)"/>
<rect x="405" width="3" height="80" fill="url(#paint45_linear_1248_454)"/>
<rect x="414" width="3" height="80" fill="url(#paint46_linear_1248_454)"/>
<rect x="423" width="3" height="80" fill="url(#paint47_linear_1248_454)"/>
<rect x="432" width="3" height="80" fill="url(#paint48_linear_1248_454)"/>
<rect x="441" width="3" height="80" fill="url(#paint49_linear_1248_454)"/>
<rect x="450" width="3" height="80" fill="url(#paint50_linear_1248_454)"/>
<rect x="459" width="3" height="80" fill="url(#paint51_linear_1248_454)"/>
<rect x="468" width="3" height="80" fill="url(#paint52_linear_1248_454)"/>
<rect x="477" width="3" height="80" fill="url(#paint53_linear_1248_454)"/>
<rect x="486" width="3" height="80" fill="url(#paint54_linear_1248_454)"/>
<rect x="495" width="3" height="80" fill="url(#paint55_linear_1248_454)"/>
<rect x="504" width="3" height="80" fill="url(#paint56_linear_1248_454)"/>
<rect x="513" width="3" height="80" fill="url(#paint57_linear_1248_454)"/>
<rect x="522" width="3" height="80" fill="url(#paint58_linear_1248_454)"/>
<rect x="531" width="3" height="80" fill="url(#paint59_linear_1248_454)"/>
<rect x="540" width="3" height="80" fill="url(#paint60_linear_1248_454)"/>
<rect x="549" width="3" height="80" fill="url(#paint61_linear_1248_454)"/>
<rect x="558" width="3" height="80" fill="url(#paint62_linear_1248_454)"/>
<rect x="567" width="3" height="80" fill="url(#paint63_linear_1248_454)"/>
<rect x="576" width="3" height="80" fill="url(#paint64_linear_1248_454)"/>
<rect x="585" width="3" height="80" fill="url(#paint65_linear_1248_454)"/>
<rect x="594" width="3" height="80" fill="url(#paint66_linear_1248_454)"/>
<rect x="603" width="3" height="80" fill="url(#paint67_linear_1248_454)"/>
<rect x="612" width="3" height="80" fill="url(#paint68_linear_1248_454)"/>
<rect x="621" width="3" height="80" fill="url(#paint69_linear_1248_454)"/>
<rect x="630" width="3" height="80" fill="url(#paint70_linear_1248_454)"/>
<rect x="639" width="3" height="80" fill="url(#paint71_linear_1248_454)"/>
<rect x="648" width="3" height="80" fill="url(#paint72_linear_1248_454)"/>
<rect x="657" width="3" height="80" fill="url(#paint73_linear_1248_454)"/>
<rect x="666" width="3" height="80" fill="url(#paint74_linear_1248_454)"/>
<rect x="675" width="3" height="80" fill="url(#paint75_linear_1248_454)"/>
<rect x="684" width="3" height="80" fill="url(#paint76_linear_1248_454)"/>
<rect x="693" width="3" height="80" fill="url(#paint77_linear_1248_454)"/>
<rect x="702" width="3" height="80" fill="url(#paint78_linear_1248_454)"/>
<rect x="711" width="3" height="80" fill="url(#paint79_linear_1248_454)"/>
<rect x="720" width="3" height="80" fill="url(#paint80_linear_1248_454)"/>
<rect x="729" width="3" height="80" fill="url(#paint81_linear_1248_454)"/>
<rect x="738" width="3" height="80" fill="url(#paint82_linear_1248_454)"/>
<rect x="747" width="3" height="80" fill="url(#paint83_linear_1248_454)"/>
<rect x="756" width="3" height="80" fill="url(#paint84_linear_1248_454)"/>
<rect x="765" width="3" height="80" fill="url(#paint85_linear_1248_454)"/>
<rect x="774" width="3" height="80" fill="url(#paint86_linear_1248_454)"/>
<rect x="783" width="3" height="80" fill="url(#paint87_linear_1248_454)"/>
<rect x="792" width="3" height="80" fill="url(#paint88_linear_1248_454)"/>
<rect x="801" width="3" height="80" fill="url(#paint89_linear_1248_454)"/>
<rect x="810" width="3" height="80" fill="url(#paint90_linear_1248_454)"/>
<rect x="819" width="3" height="80" fill="url(#paint91_linear_1248_454)"/>
<rect x="828" width="3" height="80" fill="url(#paint92_linear_1248_454)"/>
<rect x="837" width="3" height="80" fill="url(#paint93_linear_1248_454)"/>
<rect x="846" width="3" height="80" fill="url(#paint94_linear_1248_454)"/>
<rect x="855" width="3" height="80" fill="url(#paint95_linear_1248_454)"/>
<rect x="864" width="3" height="80" fill="url(#paint96_linear_1248_454)"/>
<rect x="873" width="3" height="80" fill="url(#paint97_linear_1248_454)"/>
<rect x="882" width="3" height="80" fill="url(#paint98_linear_1248_454)"/>
<rect x="891" width="3" height="80" fill="url(#paint99_linear_1248_454)"/>
<rect x="900" width="3" height="80" fill="url(#paint100_linear_1248_454)"/>
<rect x="909" width="3" height="80" fill="url(#paint101_linear_1248_454)"/>
<rect x="918" width="3" height="80" fill="url(#paint102_linear_1248_454)"/>
<rect x="927" width="3" height="80" fill="url(#paint103_linear_1248_454)"/>
<rect x="936" width="3" height="80" fill="url(#paint104_linear_1248_454)"/>
<rect x="945" width="3" height="80" fill="url(#paint105_linear_1248_454)"/>
<rect x="954" width="3" height="80" fill="url(#paint106_linear_1248_454)"/>
<rect x="963" width="3" height="80" fill="url(#paint107_linear_1248_454)"/>
<rect x="972" width="3" height="80" fill="url(#paint108_linear_1248_454)"/>
<rect x="981" width="3" height="80" fill="url(#paint109_linear_1248_454)"/>
<rect x="990" width="3" height="80" fill="url(#paint110_linear_1248_454)"/>
<rect x="999" width="3" height="80" fill="url(#paint111_linear_1248_454)"/>
<rect x="1008" width="3" height="80" fill="url(#paint112_linear_1248_454)"/>
<rect x="1017" width="3" height="80" fill="url(#paint113_linear_1248_454)"/>
<rect x="1026" width="3" height="80" fill="url(#paint114_linear_1248_454)"/>
<rect x="1035" width="3" height="80" fill="url(#paint115_linear_1248_454)"/>
<rect x="1044" width="3" height="80" fill="url(#paint116_linear_1248_454)"/>
<rect x="1053" width="3" height="80" fill="url(#paint117_linear_1248_454)"/>
<rect x="1062" width="3" height="80" fill="url(#paint118_linear_1248_454)"/>
<rect x="1071" width="3" height="80" fill="url(#paint119_linear_1248_454)"/>
<rect x="1080" width="3" height="80" fill="url(#paint120_linear_1248_454)"/>
<rect x="1089" width="3" height="80" fill="url(#paint121_linear_1248_454)"/>
<rect x="1098" width="3" height="80" fill="url(#paint122_linear_1248_454)"/>
<rect x="1107" width="3" height="80" fill="url(#paint123_linear_1248_454)"/>
<rect x="1116" width="3" height="80" fill="url(#paint124_linear_1248_454)"/>
<rect x="1125" width="3" height="80" fill="url(#paint125_linear_1248_454)"/>
<rect x="1134" width="3" height="80" fill="url(#paint126_linear_1248_454)"/>
<rect x="1143" width="3" height="80" fill="url(#paint127_linear_1248_454)"/>
<rect x="1152" width="3" height="80" fill="url(#paint128_linear_1248_454)"/>
<rect x="1161" width="3" height="80" fill="url(#paint129_linear_1248_454)"/>
<rect x="1170" width="3" height="80" fill="url(#paint130_linear_1248_454)"/>
<rect x="1179" width="3" height="80" fill="url(#paint131_linear_1248_454)"/>
<rect x="1188" width="3" height="80" fill="url(#paint132_linear_1248_454)"/>
<rect x="1197" width="3" height="80" fill="url(#paint133_linear_1248_454)"/>
<rect x="1206" width="3" height="80" fill="url(#paint134_linear_1248_454)"/>
<rect x="1215" width="3" height="80" fill="url(#paint135_linear_1248_454)"/>
<rect x="1224" width="3" height="80" fill="url(#paint136_linear_1248_454)"/>
<rect x="1233" width="3" height="80" fill="url(#paint137_linear_1248_454)"/>
<rect x="1242" width="3" height="80" fill="url(#paint138_linear_1248_454)"/>
<rect x="1251" width="3" height="80" fill="url(#paint139_linear_1248_454)"/>
<rect x="1260" width="3" height="80" fill="url(#paint140_linear_1248_454)"/>
<rect x="1269" width="3" height="80" fill="url(#paint141_linear_1248_454)"/>
<rect x="1278" width="3" height="80" fill="url(#paint142_linear_1248_454)"/>
<rect x="1287" width="3" height="80" fill="url(#paint143_linear_1248_454)"/>
<rect x="1296" width="3" height="80" fill="url(#paint144_linear_1248_454)"/>
<rect x="1305" width="3" height="80" fill="url(#paint145_linear_1248_454)"/>
<rect x="1314" width="3" height="80" fill="url(#paint146_linear_1248_454)"/>
<rect x="1323" width="3" height="80" fill="url(#paint147_linear_1248_454)"/>
<rect x="1332" width="3" height="80" fill="url(#paint148_linear_1248_454)"/>
<rect x="1341" width="3" height="80" fill="url(#paint149_linear_1248_454)"/>
<rect x="1350" width="3" height="80" fill="url(#paint150_linear_1248_454)"/>
<rect x="1359" width="3" height="80" fill="url(#paint151_linear_1248_454)"/>
<rect x="1368" width="3" height="80" fill="url(#paint152_linear_1248_454)"/>
<rect x="1377" width="3" height="80" fill="url(#paint153_linear_1248_454)"/>
<rect x="1386" width="3" height="80" fill="url(#paint154_linear_1248_454)"/>
<rect x="1395" width="3" height="80" fill="url(#paint155_linear_1248_454)"/>
<rect x="1404" width="3" height="80" fill="url(#paint156_linear_1248_454)"/>
<rect x="1413" width="3" height="80" fill="url(#paint157_linear_1248_454)"/>
<rect x="1422" width="3" height="80" fill="url(#paint158_linear_1248_454)"/>
<rect x="1431" width="3" height="80" fill="url(#paint159_linear_1248_454)"/>
<rect x="1440" width="3" height="80" fill="url(#paint160_linear_1248_454)"/>
<rect x="1449" width="3" height="80" fill="url(#paint161_linear_1248_454)"/>
<rect x="1458" width="3" height="80" fill="url(#paint162_linear_1248_454)"/>
<rect x="1467" width="3" height="80" fill="url(#paint163_linear_1248_454)"/>
<rect x="1476" width="3" height="80" fill="url(#paint164_linear_1248_454)"/>
<rect x="1485" width="3" height="80" fill="url(#paint165_linear_1248_454)"/>
<rect x="1494" width="3" height="80" fill="url(#paint166_linear_1248_454)"/>
<defs>
<linearGradient id="paint0_linear_1248_454" x1="1.5" y1="0" x2="1.5" y2="80" gradientUnits="userSpaceOnUse">
<stop stop-color="#C6C6C6"/>
<stop offset="1" stop-color="white"/>
</linearGradient>
<linearGradient id="paint1_linear_1248_454" x1="10.5" y1="0" x2="10.5" y2="80" gradientUnits="userSpaceOnUse">
<stop stop-color="#C6C6C6"/>
<stop offset="1" stop-color="white"/>
</linearGradient>
<linearGradient id="paint2_linear_1248_454" x1="19.5" y1="0" x2="19.5" y2="80" gradientUnits="userSpaceOnUse">
<stop stop-color="#C6C6C6"/>
<stop offset="1" stop-color="white"/>
</linearGradient>
<linearGradient id="paint3_linear_1248_454" x1="28.5" y1="0" x2="28.5" y2="80" gradientUnits="userSpaceOnUse">
<stop stop-color="#C6C6C6"/>
<stop offset="1" stop-color="white"/>
</linearGradient>
<linearGradient id="paint4_linear_1248_454" x1="37.5" y1="0" x2="37.5" y2="80" gradientUnits="userSpaceOnUse">
<stop stop-color="#C6C6C6"/>
<stop offset="1" stop-color="white"/>
</linearGradient>
<linearGradient id="paint5_linear_1248_454" x1="46.5" y1="0" x2="46.5" y2="80" gradientUnits="userSpaceOnUse">
<stop stop-color="#C6C6C6"/>
<stop offset="1" stop-color="white"/>
</linearGradient>
<linearGradient id="paint6_linear_1248_454" x1="55.5" y1="0" x2="55.5" y2="80" gradientUnits="userSpaceOnUse">
<stop stop-color="#C6C6C6"/>
<stop offset="1" stop-color="white"/>
</linearGradient>
<linearGradient id="paint7_linear_1248_454" x1="64.5" y1="0" x2="64.5" y2="80" gradientUnits="userSpaceOnUse">
<stop stop-color="#C6C6C6"/>
<stop offset="1" stop-color="white"/>
</linearGradient>
<linearGradient id="paint8_linear_1248_454" x1="73.5" y1="0" x2="73.5" y2="80" gradientUnits="userSpaceOnUse">
<stop stop-color="#C6C6C6"/>
<stop offset="1" stop-color="white"/>
</linearGradient>
<linearGradient id="paint9_linear_1248_454" x1="82.5" y1="0" x2="82.5" y2="80" gradientUnits="userSpaceOnUse">
<stop stop-color="#C6C6C6"/>
<stop offset="1" stop-color="white"/>
</linearGradient>
<linearGradient id="paint10_linear_1248_454" x1="91.5" y1="0" x2="91.5" y2="80" gradientUnits="userSpaceOnUse">
<stop stop-color="#C6C6C6"/>
<stop offset="1" stop-color="white"/>
</linearGradient>
<linearGradient id="paint11_linear_1248_454" x1="100.5" y1="0" x2="100.5" y2="80" gradientUnits="userSpaceOnUse">
<stop stop-color="#C6C6C6"/>
<stop offset="1" stop-color="white"/>
</linearGradient>
<linearGradient id="paint12_linear_1248_454" x1="109.5" y1="0" x2="109.5" y2="80" gradientUnits="userSpaceOnUse">
<stop stop-color="#C6C6C6"/>
<stop offset="1" stop-color="white"/>
</linearGradient>
<linearGradient id="paint13_linear_1248_454" x1="118.5" y1="0" x2="118.5" y2="80" gradientUnits="userSpaceOnUse">
<stop stop-color="#C6C6C6"/>
<stop offset="1" stop-color="white"/>
</linearGradient>
<linearGradient id="paint14_linear_1248_454" x1="127.5" y1="0" x2="127.5" y2="80" gradientUnits="userSpaceOnUse">
<stop stop-color="#C6C6C6"/>
<stop offset="1" stop-color="white"/>
</linearGradient>
<linearGradient id="paint15_linear_1248_454" x1="136.5" y1="0" x2="136.5" y2="80" gradientUnits="userSpaceOnUse">
<stop stop-color="#C6C6C6"/>
<stop offset="1" stop-color="white"/>
</linearGradient>
<linearGradient id="paint16_linear_1248_454" x1="145.5" y1="0" x2="145.5" y2="80" gradientUnits="userSpaceOnUse">
<stop stop-color="#C6C6C6"/>
<stop offset="1" stop-color="white"/>
</linearGradient>
<linearGradient id="paint17_linear_1248_454" x1="154.5" y1="0" x2="154.5" y2="80" gradientUnits="userSpaceOnUse">
<stop stop-color="#C6C6C6"/>
<stop offset="1" stop-color="white"/>
</linearGradient>
<linearGradient id="paint18_linear_1248_454" x1="163.5" y1="0" x2="163.5" y2="80" gradientUnits="userSpaceOnUse">
<stop stop-color="#C6C6C6"/>
<stop offset="1" stop-color="white"/>
</linearGradient>
<linearGradient id="paint19_linear_1248_454" x1="172.5" y1="0" x2="172.5" y2="80" gradientUnits="userSpaceOnUse">
<stop stop-color="#C6C6C6"/>
<stop offset="1" stop-color="white"/>
</linearGradient>
<linearGradient id="paint20_linear_1248_454" x1="181.5" y1="0" x2="181.5" y2="80" gradientUnits="userSpaceOnUse">
<stop stop-color="#C6C6C6"/>
<stop offset="1" stop-color="white"/>
</linearGradient>
<linearGradient id="paint21_linear_1248_454" x1="190.5" y1="0" x2="190.5" y2="80" gradientUnits="userSpaceOnUse">
<stop stop-color="#C6C6C6"/>
<stop offset="1" stop-color="white"/>
</linearGradient>
<linearGradient id="paint22_linear_1248_454" x1="199.5" y1="0" x2="199.5" y2="80" gradientUnits="userSpaceOnUse">
<stop stop-color="#C6C6C6"/>
<stop offset="1" stop-color="white"/>
</linearGradient>
<linearGradient id="paint23_linear_1248_454" x1="208.5" y1="0" x2="208.5" y2="80" gradientUnits="userSpaceOnUse">
<stop stop-color="#C6C6C6"/>
<stop offset="1" stop-color="white"/>
</linearGradient>
<linearGradient id="paint24_linear_1248_454" x1="217.5" y1="0" x2="217.5" y2="80" gradientUnits="userSpaceOnUse">
<stop stop-color="#C6C6C6"/>
<stop offset="1" stop-color="white"/>
</linearGradient>
<linearGradient id="paint25_linear_1248_454" x1="226.5" y1="0" x2="226.5" y2="80" gradientUnits="userSpaceOnUse">
<stop stop-color="#C6C6C6"/>
<stop offset="1" stop-color="white"/>
</linearGradient>
<linearGradient id="paint26_linear_1248_454" x1="235.5" y1="0" x2="235.5" y2="80" gradientUnits="userSpaceOnUse">
<stop stop-color="#C6C6C6"/>
<stop offset="1" stop-color="white"/>
</linearGradient>
<linearGradient id="paint27_linear_1248_454" x1="244.5" y1="0" x2="244.5" y2="80" gradientUnits="userSpaceOnUse">
<stop stop-color="#C6C6C6"/>
<stop offset="1" stop-color="white"/>
</linearGradient>
<linearGradient id="paint28_linear_1248_454" x1="253.5" y1="0" x2="253.5" y2="80" gradientUnits="userSpaceOnUse">
<stop stop-color="#C6C6C6"/>
<stop offset="1" stop-color="white"/>
</linearGradient>
<linearGradient id="paint29_linear_1248_454" x1="262.5" y1="0" x2="262.5" y2="80" gradientUnits="userSpaceOnUse">
<stop stop-color="#C6C6C6"/>
<stop offset="1" stop-color="white"/>
</linearGradient>
<linearGradient id="paint30_linear_1248_454" x1="271.5" y1="0" x2="271.5" y2="80" gradientUnits="userSpaceOnUse">
<stop stop-color="#C6C6C6"/>
<stop offset="1" stop-color="white"/>
</linearGradient>
<linearGradient id="paint31_linear_1248_454" x1="280.5" y1="0" x2="280.5" y2="80" gradientUnits="userSpaceOnUse">
<stop stop-color="#C6C6C6"/>
<stop offset="1" stop-color="white"/>
</linearGradient>
<linearGradient id="paint32_linear_1248_454" x1="289.5" y1="0" x2="289.5" y2="80" gradientUnits="userSpaceOnUse">
<stop stop-color="#C6C6C6"/>
<stop offset="1" stop-color="white"/>
</linearGradient>
<linearGradient id="paint33_linear_1248_454" x1="298.5" y1="0" x2="298.5" y2="80" gradientUnits="userSpaceOnUse">
<stop stop-color="#C6C6C6"/>
<stop offset="1" stop-color="white"/>
</linearGradient>
<linearGradient id="paint34_linear_1248_454" x1="307.5" y1="0" x2="307.5" y2="80" gradientUnits="userSpaceOnUse">
<stop stop-color="#C6C6C6"/>
<stop offset="1" stop-color="white"/>
</linearGradient>
<linearGradient id="paint35_linear_1248_454" x1="316.5" y1="0" x2="316.5" y2="80" gradientUnits="userSpaceOnUse">
<stop stop-color="#C6C6C6"/>
<stop offset="1" stop-color="white"/>
</linearGradient>
<linearGradient id="paint36_linear_1248_454" x1="325.5" y1="0" x2="325.5" y2="80" gradientUnits="userSpaceOnUse">
<stop stop-color="#C6C6C6"/>
<stop offset="1" stop-color="white"/>
</linearGradient>
<linearGradient id="paint37_linear_1248_454" x1="334.5" y1="0" x2="334.5" y2="80" gradientUnits="userSpaceOnUse">
<stop stop-color="#C6C6C6"/>
<stop offset="1" stop-color="white"/>
</linearGradient>
<linearGradient id="paint38_linear_1248_454" x1="343.5" y1="0" x2="343.5" y2="80" gradientUnits="userSpaceOnUse">
<stop stop-color="#C6C6C6"/>
<stop offset="1" stop-color="white"/>
</linearGradient>
<linearGradient id="paint39_linear_1248_454" x1="352.5" y1="0" x2="352.5" y2="80" gradientUnits="userSpaceOnUse">
<stop stop-color="#C6C6C6"/>
<stop offset="1" stop-color="white"/>
</linearGradient>
<linearGradient id="paint40_linear_1248_454" x1="361.5" y1="0" x2="361.5" y2="80" gradientUnits="userSpaceOnUse">
<stop stop-color="#C6C6C6"/>
<stop offset="1" stop-color="white"/>
</linearGradient>
<linearGradient id="paint41_linear_1248_454" x1="370.5" y1="0" x2="370.5" y2="80" gradientUnits="userSpaceOnUse">
<stop stop-color="#C6C6C6"/>
<stop offset="1" stop-color="white"/>
</linearGradient>
<linearGradient id="paint42_linear_1248_454" x1="379.5" y1="0" x2="379.5" y2="80" gradientUnits="userSpaceOnUse">
<stop stop-color="#C6C6C6"/>
<stop offset="1" stop-color="white"/>
</linearGradient>
<linearGradient id="paint43_linear_1248_454" x1="388.5" y1="0" x2="388.5" y2="80" gradientUnits="userSpaceOnUse">
<stop stop-color="#C6C6C6"/>
<stop offset="1" stop-color="white"/>
</linearGradient>
<linearGradient id="paint44_linear_1248_454" x1="397.5" y1="0" x2="397.5" y2="80" gradientUnits="userSpaceOnUse">
<stop stop-color="#C6C6C6"/>
<stop offset="1" stop-color="white"/>
</linearGradient>
<linearGradient id="paint45_linear_1248_454" x1="406.5" y1="0" x2="406.5" y2="80" gradientUnits="userSpaceOnUse">
<stop stop-color="#C6C6C6"/>
<stop offset="1" stop-color="white"/>
</linearGradient>
<linearGradient id="paint46_linear_1248_454" x1="415.5" y1="0" x2="415.5" y2="80" gradientUnits="userSpaceOnUse">
<stop stop-color="#C6C6C6"/>
<stop offset="1" stop-color="white"/>
</linearGradient>
<linearGradient id="paint47_linear_1248_454" x1="424.5" y1="0" x2="424.5" y2="80" gradientUnits="userSpaceOnUse">
<stop stop-color="#C6C6C6"/>
<stop offset="1" stop-color="white"/>
</linearGradient>
<linearGradient id="paint48_linear_1248_454" x1="433.5" y1="0" x2="433.5" y2="80" gradientUnits="userSpaceOnUse">
<stop stop-color="#C6C6C6"/>
<stop offset="1" stop-color="white"/>
</linearGradient>
<linearGradient id="paint49_linear_1248_454" x1="442.5" y1="0" x2="442.5" y2="80" gradientUnits="userSpaceOnUse">
<stop stop-color="#C6C6C6"/>
<stop offset="1" stop-color="white"/>
</linearGradient>
<linearGradient id="paint50_linear_1248_454" x1="451.5" y1="0" x2="451.5" y2="80" gradientUnits="userSpaceOnUse">
<stop stop-color="#C6C6C6"/>
<stop offset="1" stop-color="white"/>
</linearGradient>
<linearGradient id="paint51_linear_1248_454" x1="460.5" y1="0" x2="460.5" y2="80" gradientUnits="userSpaceOnUse">
<stop stop-color="#C6C6C6"/>
<stop offset="1" stop-color="white"/>
</linearGradient>
<linearGradient id="paint52_linear_1248_454" x1="469.5" y1="0" x2="469.5" y2="80" gradientUnits="userSpaceOnUse">
<stop stop-color="#C6C6C6"/>
<stop offset="1" stop-color="white"/>
</linearGradient>
<linearGradient id="paint53_linear_1248_454" x1="478.5" y1="0" x2="478.5" y2="80" gradientUnits="userSpaceOnUse">
<stop stop-color="#C6C6C6"/>
<stop offset="1" stop-color="white"/>
</linearGradient>
<linearGradient id="paint54_linear_1248_454" x1="487.5" y1="0" x2="487.5" y2="80" gradientUnits="userSpaceOnUse">
<stop stop-color="#C6C6C6"/>
<stop offset="1" stop-color="white"/>
</linearGradient>
<linearGradient id="paint55_linear_1248_454" x1="496.5" y1="0" x2="496.5" y2="80" gradientUnits="userSpaceOnUse">
<stop stop-color="#C6C6C6"/>
<stop offset="1" stop-color="white"/>
</linearGradient>
<linearGradient id="paint56_linear_1248_454" x1="505.5" y1="0" x2="505.5" y2="80" gradientUnits="userSpaceOnUse">
<stop stop-color="#C6C6C6"/>
<stop offset="1" stop-color="white"/>
</linearGradient>
<linearGradient id="paint57_linear_1248_454" x1="514.5" y1="0" x2="514.5" y2="80" gradientUnits="userSpaceOnUse">
<stop stop-color="#C6C6C6"/>
<stop offset="1" stop-color="white"/>
</linearGradient>
<linearGradient id="paint58_linear_1248_454" x1="523.5" y1="0" x2="523.5" y2="80" gradientUnits="userSpaceOnUse">
<stop stop-color="#C6C6C6"/>
<stop offset="1" stop-color="white"/>
</linearGradient>
<linearGradient id="paint59_linear_1248_454" x1="532.5" y1="0" x2="532.5" y2="80" gradientUnits="userSpaceOnUse">
<stop stop-color="#C6C6C6"/>
<stop offset="1" stop-color="white"/>
</linearGradient>
<linearGradient id="paint60_linear_1248_454" x1="541.5" y1="0" x2="541.5" y2="80" gradientUnits="userSpaceOnUse">
<stop stop-color="#C6C6C6"/>
<stop offset="1" stop-color="white"/>
</linearGradient>
<linearGradient id="paint61_linear_1248_454" x1="550.5" y1="0" x2="550.5" y2="80" gradientUnits="userSpaceOnUse">
<stop stop-color="#C6C6C6"/>
<stop offset="1" stop-color="white"/>
</linearGradient>
<linearGradient id="paint62_linear_1248_454" x1="559.5" y1="0" x2="559.5" y2="80" gradientUnits="userSpaceOnUse">
<stop stop-color="#C6C6C6"/>
<stop offset="1" stop-color="white"/>
</linearGradient>
<linearGradient id="paint63_linear_1248_454" x1="568.5" y1="0" x2="568.5" y2="80" gradientUnits="userSpaceOnUse">
<stop stop-color="#C6C6C6"/>
<stop offset="1" stop-color="white"/>
</linearGradient>
<linearGradient id="paint64_linear_1248_454" x1="577.5" y1="0" x2="577.5" y2="80" gradientUnits="userSpaceOnUse">
<stop stop-color="#C6C6C6"/>
<stop offset="1" stop-color="white"/>
</linearGradient>
<linearGradient id="paint65_linear_1248_454" x1="586.5" y1="0" x2="586.5" y2="80" gradientUnits="userSpaceOnUse">
<stop stop-color="#C6C6C6"/>
<stop offset="1" stop-color="white"/>
</linearGradient>
<linearGradient id="paint66_linear_1248_454" x1="595.5" y1="0" x2="595.5" y2="80" gradientUnits="userSpaceOnUse">
<stop stop-color="#C6C6C6"/>
<stop offset="1" stop-color="white"/>
</linearGradient>
<linearGradient id="paint67_linear_1248_454" x1="604.5" y1="0" x2="604.5" y2="80" gradientUnits="userSpaceOnUse">
<stop stop-color="#C6C6C6"/>
<stop offset="1" stop-color="white"/>
</linearGradient>
<linearGradient id="paint68_linear_1248_454" x1="613.5" y1="0" x2="613.5" y2="80" gradientUnits="userSpaceOnUse">
<stop stop-color="#C6C6C6"/>
<stop offset="1" stop-color="white"/>
</linearGradient>
<linearGradient id="paint69_linear_1248_454" x1="622.5" y1="0" x2="622.5" y2="80" gradientUnits="userSpaceOnUse">
<stop stop-color="#C6C6C6"/>
<stop offset="1" stop-color="white"/>
</linearGradient>
<linearGradient id="paint70_linear_1248_454" x1="631.5" y1="0" x2="631.5" y2="80" gradientUnits="userSpaceOnUse">
<stop stop-color="#C6C6C6"/>
<stop offset="1" stop-color="white"/>
</linearGradient>
<linearGradient id="paint71_linear_1248_454" x1="640.5" y1="0" x2="640.5" y2="80" gradientUnits="userSpaceOnUse">
<stop stop-color="#C6C6C6"/>
<stop offset="1" stop-color="white"/>
</linearGradient>
<linearGradient id="paint72_linear_1248_454" x1="649.5" y1="0" x2="649.5" y2="80" gradientUnits="userSpaceOnUse">
<stop stop-color="#C6C6C6"/>
<stop offset="1" stop-color="white"/>
</linearGradient>
<linearGradient id="paint73_linear_1248_454" x1="658.5" y1="0" x2="658.5" y2="80" gradientUnits="userSpaceOnUse">
<stop stop-color="#C6C6C6"/>
<stop offset="1" stop-color="white"/>
</linearGradient>
<linearGradient id="paint74_linear_1248_454" x1="667.5" y1="0" x2="667.5" y2="80" gradientUnits="userSpaceOnUse">
<stop stop-color="#C6C6C6"/>
<stop offset="1" stop-color="white"/>
</linearGradient>
<linearGradient id="paint75_linear_1248_454" x1="676.5" y1="0" x2="676.5" y2="80" gradientUnits="userSpaceOnUse">
<stop stop-color="#C6C6C6"/>
<stop offset="1" stop-color="white"/>
</linearGradient>
<linearGradient id="paint76_linear_1248_454" x1="685.5" y1="0" x2="685.5" y2="80" gradientUnits="userSpaceOnUse">
<stop stop-color="#C6C6C6"/>
<stop offset="1" stop-color="white"/>
</linearGradient>
<linearGradient id="paint77_linear_1248_454" x1="694.5" y1="0" x2="694.5" y2="80" gradientUnits="userSpaceOnUse">
<stop stop-color="#C6C6C6"/>
<stop offset="1" stop-color="white"/>
</linearGradient>
<linearGradient id="paint78_linear_1248_454" x1="703.5" y1="0" x2="703.5" y2="80" gradientUnits="userSpaceOnUse">
<stop stop-color="#C6C6C6"/>
<stop offset="1" stop-color="white"/>
</linearGradient>
<linearGradient id="paint79_linear_1248_454" x1="712.5" y1="0" x2="712.5" y2="80" gradientUnits="userSpaceOnUse">
<stop stop-color="#C6C6C6"/>
<stop offset="1" stop-color="white"/>
</linearGradient>
<linearGradient id="paint80_linear_1248_454" x1="721.5" y1="0" x2="721.5" y2="80" gradientUnits="userSpaceOnUse">
<stop stop-color="#C6C6C6"/>
<stop offset="1" stop-color="white"/>
</linearGradient>
<linearGradient id="paint81_linear_1248_454" x1="730.5" y1="0" x2="730.5" y2="80" gradientUnits="userSpaceOnUse">
<stop stop-color="#C6C6C6"/>
<stop offset="1" stop-color="white"/>
</linearGradient>
<linearGradient id="paint82_linear_1248_454" x1="739.5" y1="0" x2="739.5" y2="80" gradientUnits="userSpaceOnUse">
<stop stop-color="#C6C6C6"/>
<stop offset="1" stop-color="white"/>
</linearGradient>
<linearGradient id="paint83_linear_1248_454" x1="748.5" y1="0" x2="748.5" y2="80" gradientUnits="userSpaceOnUse">
<stop stop-color="#C6C6C6"/>
<stop offset="1" stop-color="white"/>
</linearGradient>
<linearGradient id="paint84_linear_1248_454" x1="757.5" y1="0" x2="757.5" y2="80" gradientUnits="userSpaceOnUse">
<stop stop-color="#C6C6C6"/>
<stop offset="1" stop-color="white"/>
</linearGradient>
<linearGradient id="paint85_linear_1248_454" x1="766.5" y1="0" x2="766.5" y2="80" gradientUnits="userSpaceOnUse">
<stop stop-color="#C6C6C6"/>
<stop offset="1" stop-color="white"/>
</linearGradient>
<linearGradient id="paint86_linear_1248_454" x1="775.5" y1="0" x2="775.5" y2="80" gradientUnits="userSpaceOnUse">
<stop stop-color="#C6C6C6"/>
<stop offset="1" stop-color="white"/>
</linearGradient>
<linearGradient id="paint87_linear_1248_454" x1="784.5" y1="0" x2="784.5" y2="80" gradientUnits="userSpaceOnUse">
<stop stop-color="#C6C6C6"/>
<stop offset="1" stop-color="white"/>
</linearGradient>
<linearGradient id="paint88_linear_1248_454" x1="793.5" y1="0" x2="793.5" y2="80" gradientUnits="userSpaceOnUse">
<stop stop-color="#C6C6C6"/>
<stop offset="1" stop-color="white"/>
</linearGradient>
<linearGradient id="paint89_linear_1248_454" x1="802.5" y1="0" x2="802.5" y2="80" gradientUnits="userSpaceOnUse">
<stop stop-color="#C6C6C6"/>
<stop offset="1" stop-color="white"/>
</linearGradient>
<linearGradient id="paint90_linear_1248_454" x1="811.5" y1="0" x2="811.5" y2="80" gradientUnits="userSpaceOnUse">
<stop stop-color="#C6C6C6"/>
<stop offset="1" stop-color="white"/>
</linearGradient>
<linearGradient id="paint91_linear_1248_454" x1="820.5" y1="0" x2="820.5" y2="80" gradientUnits="userSpaceOnUse">
<stop stop-color="#C6C6C6"/>
<stop offset="1" stop-color="white"/>
</linearGradient>
<linearGradient id="paint92_linear_1248_454" x1="829.5" y1="0" x2="829.5" y2="80" gradientUnits="userSpaceOnUse">
<stop stop-color="#C6C6C6"/>
<stop offset="1" stop-color="white"/>
</linearGradient>
<linearGradient id="paint93_linear_1248_454" x1="838.5" y1="0" x2="838.5" y2="80" gradientUnits="userSpaceOnUse">
<stop stop-color="#C6C6C6"/>
<stop offset="1" stop-color="white"/>
</linearGradient>
<linearGradient id="paint94_linear_1248_454" x1="847.5" y1="0" x2="847.5" y2="80" gradientUnits="userSpaceOnUse">
<stop stop-color="#C6C6C6"/>
<stop offset="1" stop-color="white"/>
</linearGradient>
<linearGradient id="paint95_linear_1248_454" x1="856.5" y1="0" x2="856.5" y2="80" gradientUnits="userSpaceOnUse">
<stop stop-color="#C6C6C6"/>
<stop offset="1" stop-color="white"/>
</linearGradient>
<linearGradient id="paint96_linear_1248_454" x1="865.5" y1="0" x2="865.5" y2="80" gradientUnits="userSpaceOnUse">
<stop stop-color="#C6C6C6"/>
<stop offset="1" stop-color="white"/>
</linearGradient>
<linearGradient id="paint97_linear_1248_454" x1="874.5" y1="0" x2="874.5" y2="80" gradientUnits="userSpaceOnUse">
<stop stop-color="#C6C6C6"/>
<stop offset="1" stop-color="white"/>
</linearGradient>
<linearGradient id="paint98_linear_1248_454" x1="883.5" y1="0" x2="883.5" y2="80" gradientUnits="userSpaceOnUse">
<stop stop-color="#C6C6C6"/>
<stop offset="1" stop-color="white"/>
</linearGradient>
<linearGradient id="paint99_linear_1248_454" x1="892.5" y1="0" x2="892.5" y2="80" gradientUnits="userSpaceOnUse">
<stop stop-color="#C6C6C6"/>
<stop offset="1" stop-color="white"/>
</linearGradient>
<linearGradient id="paint100_linear_1248_454" x1="901.5" y1="0" x2="901.5" y2="80" gradientUnits="userSpaceOnUse">
<stop stop-color="#C6C6C6"/>
<stop offset="1" stop-color="white"/>
</linearGradient>
<linearGradient id="paint101_linear_1248_454" x1="910.5" y1="0" x2="910.5" y2="80" gradientUnits="userSpaceOnUse">
<stop stop-color="#C6C6C6"/>
<stop offset="1" stop-color="white"/>
</linearGradient>
<linearGradient id="paint102_linear_1248_454" x1="919.5" y1="0" x2="919.5" y2="80" gradientUnits="userSpaceOnUse">
<stop stop-color="#C6C6C6"/>
<stop offset="1" stop-color="white"/>
</linearGradient>
<linearGradient id="paint103_linear_1248_454" x1="928.5" y1="0" x2="928.5" y2="80" gradientUnits="userSpaceOnUse">
<stop stop-color="#C6C6C6"/>
<stop offset="1" stop-color="white"/>
</linearGradient>
<linearGradient id="paint104_linear_1248_454" x1="937.5" y1="0" x2="937.5" y2="80" gradientUnits="userSpaceOnUse">
<stop stop-color="#C6C6C6"/>
<stop offset="1" stop-color="white"/>
</linearGradient>
<linearGradient id="paint105_linear_1248_454" x1="946.5" y1="0" x2="946.5" y2="80" gradientUnits="userSpaceOnUse">
<stop stop-color="#C6C6C6"/>
<stop offset="1" stop-color="white"/>
</linearGradient>
<linearGradient id="paint106_linear_1248_454" x1="955.5" y1="0" x2="955.5" y2="80" gradientUnits="userSpaceOnUse">
<stop stop-color="#C6C6C6"/>
<stop offset="1" stop-color="white"/>
</linearGradient>
<linearGradient id="paint107_linear_1248_454" x1="964.5" y1="0" x2="964.5" y2="80" gradientUnits="userSpaceOnUse">
<stop stop-color="#C6C6C6"/>
<stop offset="1" stop-color="white"/>
</linearGradient>
<linearGradient id="paint108_linear_1248_454" x1="973.5" y1="0" x2="973.5" y2="80" gradientUnits="userSpaceOnUse">
<stop stop-color="#C6C6C6"/>
<stop offset="1" stop-color="white"/>
</linearGradient>
<linearGradient id="paint109_linear_1248_454" x1="982.5" y1="0" x2="982.5" y2="80" gradientUnits="userSpaceOnUse">
<stop stop-color="#C6C6C6"/>
<stop offset="1" stop-color="white"/>
</linearGradient>
<linearGradient id="paint110_linear_1248_454" x1="991.5" y1="0" x2="991.5" y2="80" gradientUnits="userSpaceOnUse">
<stop stop-color="#C6C6C6"/>
<stop offset="1" stop-color="white"/>
</linearGradient>
<linearGradient id="paint111_linear_1248_454" x1="1000.5" y1="0" x2="1000.5" y2="80" gradientUnits="userSpaceOnUse">
<stop stop-color="#C6C6C6"/>
<stop offset="1" stop-color="white"/>
</linearGradient>
<linearGradient id="paint112_linear_1248_454" x1="1009.5" y1="0" x2="1009.5" y2="80" gradientUnits="userSpaceOnUse">
<stop stop-color="#C6C6C6"/>
<stop offset="1" stop-color="white"/>
</linearGradient>
<linearGradient id="paint113_linear_1248_454" x1="1018.5" y1="0" x2="1018.5" y2="80" gradientUnits="userSpaceOnUse">
<stop stop-color="#C6C6C6"/>
<stop offset="1" stop-color="white"/>
</linearGradient>
<linearGradient id="paint114_linear_1248_454" x1="1027.5" y1="0" x2="1027.5" y2="80" gradientUnits="userSpaceOnUse">
<stop stop-color="#C6C6C6"/>
<stop offset="1" stop-color="white"/>
</linearGradient>
<linearGradient id="paint115_linear_1248_454" x1="1036.5" y1="0" x2="1036.5" y2="80" gradientUnits="userSpaceOnUse">
<stop stop-color="#C6C6C6"/>
<stop offset="1" stop-color="white"/>
</linearGradient>
<linearGradient id="paint116_linear_1248_454" x1="1045.5" y1="0" x2="1045.5" y2="80" gradientUnits="userSpaceOnUse">
<stop stop-color="#C6C6C6"/>
<stop offset="1" stop-color="white"/>
</linearGradient>
<linearGradient id="paint117_linear_1248_454" x1="1054.5" y1="0" x2="1054.5" y2="80" gradientUnits="userSpaceOnUse">
<stop stop-color="#C6C6C6"/>
<stop offset="1" stop-color="white"/>
</linearGradient>
<linearGradient id="paint118_linear_1248_454" x1="1063.5" y1="0" x2="1063.5" y2="80" gradientUnits="userSpaceOnUse">
<stop stop-color="#C6C6C6"/>
<stop offset="1" stop-color="white"/>
</linearGradient>
<linearGradient id="paint119_linear_1248_454" x1="1072.5" y1="0" x2="1072.5" y2="80" gradientUnits="userSpaceOnUse">
<stop stop-color="#C6C6C6"/>
<stop offset="1" stop-color="white"/>
</linearGradient>
<linearGradient id="paint120_linear_1248_454" x1="1081.5" y1="0" x2="1081.5" y2="80" gradientUnits="userSpaceOnUse">
<stop stop-color="#C6C6C6"/>
<stop offset="1" stop-color="white"/>
</linearGradient>
<linearGradient id="paint121_linear_1248_454" x1="1090.5" y1="0" x2="1090.5" y2="80" gradientUnits="userSpaceOnUse">
<stop stop-color="#C6C6C6"/>
<stop offset="1" stop-color="white"/>
</linearGradient>
<linearGradient id="paint122_linear_1248_454" x1="1099.5" y1="0" x2="1099.5" y2="80" gradientUnits="userSpaceOnUse">
<stop stop-color="#C6C6C6"/>
<stop offset="1" stop-color="white"/>
</linearGradient>
<linearGradient id="paint123_linear_1248_454" x1="1108.5" y1="0" x2="1108.5" y2="80" gradientUnits="userSpaceOnUse">
<stop stop-color="#C6C6C6"/>
<stop offset="1" stop-color="white"/>
</linearGradient>
<linearGradient id="paint124_linear_1248_454" x1="1117.5" y1="0" x2="1117.5" y2="80" gradientUnits="userSpaceOnUse">
<stop stop-color="#C6C6C6"/>
<stop offset="1" stop-color="white"/>
</linearGradient>
<linearGradient id="paint125_linear_1248_454" x1="1126.5" y1="0" x2="1126.5" y2="80" gradientUnits="userSpaceOnUse">
<stop stop-color="#C6C6C6"/>
<stop offset="1" stop-color="white"/>
</linearGradient>
<linearGradient id="paint126_linear_1248_454" x1="1135.5" y1="0" x2="1135.5" y2="80" gradientUnits="userSpaceOnUse">
<stop stop-color="#C6C6C6"/>
<stop offset="1" stop-color="white"/>
</linearGradient>
<linearGradient id="paint127_linear_1248_454" x1="1144.5" y1="0" x2="1144.5" y2="80" gradientUnits="userSpaceOnUse">
<stop stop-color="#C6C6C6"/>
<stop offset="1" stop-color="white"/>
</linearGradient>
<linearGradient id="paint128_linear_1248_454" x1="1153.5" y1="0" x2="1153.5" y2="80" gradientUnits="userSpaceOnUse">
<stop stop-color="#C6C6C6"/>
<stop offset="1" stop-color="white"/>
</linearGradient>
<linearGradient id="paint129_linear_1248_454" x1="1162.5" y1="0" x2="1162.5" y2="80" gradientUnits="userSpaceOnUse">
<stop stop-color="#C6C6C6"/>
<stop offset="1" stop-color="white"/>
</linearGradient>
<linearGradient id="paint130_linear_1248_454" x1="1171.5" y1="0" x2="1171.5" y2="80" gradientUnits="userSpaceOnUse">
<stop stop-color="#C6C6C6"/>
<stop offset="1" stop-color="white"/>
</linearGradient>
<linearGradient id="paint131_linear_1248_454" x1="1180.5" y1="0" x2="1180.5" y2="80" gradientUnits="userSpaceOnUse">
<stop stop-color="#C6C6C6"/>
<stop offset="1" stop-color="white"/>
</linearGradient>
<linearGradient id="paint132_linear_1248_454" x1="1189.5" y1="0" x2="1189.5" y2="80" gradientUnits="userSpaceOnUse">
<stop stop-color="#C6C6C6"/>
<stop offset="1" stop-color="white"/>
</linearGradient>
<linearGradient id="paint133_linear_1248_454" x1="1198.5" y1="0" x2="1198.5" y2="80" gradientUnits="userSpaceOnUse">
<stop stop-color="#C6C6C6"/>
<stop offset="1" stop-color="white"/>
</linearGradient>
<linearGradient id="paint134_linear_1248_454" x1="1207.5" y1="0" x2="1207.5" y2="80" gradientUnits="userSpaceOnUse">
<stop stop-color="#C6C6C6"/>
<stop offset="1" stop-color="white"/>
</linearGradient>
<linearGradient id="paint135_linear_1248_454" x1="1216.5" y1="0" x2="1216.5" y2="80" gradientUnits="userSpaceOnUse">
<stop stop-color="#C6C6C6"/>
<stop offset="1" stop-color="white"/>
</linearGradient>
<linearGradient id="paint136_linear_1248_454" x1="1225.5" y1="0" x2="1225.5" y2="80" gradientUnits="userSpaceOnUse">
<stop stop-color="#C6C6C6"/>
<stop offset="1" stop-color="white"/>
</linearGradient>
<linearGradient id="paint137_linear_1248_454" x1="1234.5" y1="0" x2="1234.5" y2="80" gradientUnits="userSpaceOnUse">
<stop stop-color="#C6C6C6"/>
<stop offset="1" stop-color="white"/>
</linearGradient>
<linearGradient id="paint138_linear_1248_454" x1="1243.5" y1="0" x2="1243.5" y2="80" gradientUnits="userSpaceOnUse">
<stop stop-color="#C6C6C6"/>
<stop offset="1" stop-color="white"/>
</linearGradient>
<linearGradient id="paint139_linear_1248_454" x1="1252.5" y1="0" x2="1252.5" y2="80" gradientUnits="userSpaceOnUse">
<stop stop-color="#C6C6C6"/>
<stop offset="1" stop-color="white"/>
</linearGradient>
<linearGradient id="paint140_linear_1248_454" x1="1261.5" y1="0" x2="1261.5" y2="80" gradientUnits="userSpaceOnUse">
<stop stop-color="#C6C6C6"/>
<stop offset="1" stop-color="white"/>
</linearGradient>
<linearGradient id="paint141_linear_1248_454" x1="1270.5" y1="0" x2="1270.5" y2="80" gradientUnits="userSpaceOnUse">
<stop stop-color="#C6C6C6"/>
<stop offset="1" stop-color="white"/>
</linearGradient>
<linearGradient id="paint142_linear_1248_454" x1="1279.5" y1="0" x2="1279.5" y2="80" gradientUnits="userSpaceOnUse">
<stop stop-color="#C6C6C6"/>
<stop offset="1" stop-color="white"/>
</linearGradient>
<linearGradient id="paint143_linear_1248_454" x1="1288.5" y1="0" x2="1288.5" y2="80" gradientUnits="userSpaceOnUse">
<stop stop-color="#C6C6C6"/>
<stop offset="1" stop-color="white"/>
</linearGradient>
<linearGradient id="paint144_linear_1248_454" x1="1297.5" y1="0" x2="1297.5" y2="80" gradientUnits="userSpaceOnUse">
<stop stop-color="#C6C6C6"/>
<stop offset="1" stop-color="white"/>
</linearGradient>
<linearGradient id="paint145_linear_1248_454" x1="1306.5" y1="0" x2="1306.5" y2="80" gradientUnits="userSpaceOnUse">
<stop stop-color="#C6C6C6"/>
<stop offset="1" stop-color="white"/>
</linearGradient>
<linearGradient id="paint146_linear_1248_454" x1="1315.5" y1="0" x2="1315.5" y2="80" gradientUnits="userSpaceOnUse">
<stop stop-color="#C6C6C6"/>
<stop offset="1" stop-color="white"/>
</linearGradient>
<linearGradient id="paint147_linear_1248_454" x1="1324.5" y1="0" x2="1324.5" y2="80" gradientUnits="userSpaceOnUse">
<stop stop-color="#C6C6C6"/>
<stop offset="1" stop-color="white"/>
</linearGradient>
<linearGradient id="paint148_linear_1248_454" x1="1333.5" y1="0" x2="1333.5" y2="80" gradientUnits="userSpaceOnUse">
<stop stop-color="#C6C6C6"/>
<stop offset="1" stop-color="white"/>
</linearGradient>
<linearGradient id="paint149_linear_1248_454" x1="1342.5" y1="0" x2="1342.5" y2="80" gradientUnits="userSpaceOnUse">
<stop stop-color="#C6C6C6"/>
<stop offset="1" stop-color="white"/>
</linearGradient>
<linearGradient id="paint150_linear_1248_454" x1="1351.5" y1="0" x2="1351.5" y2="80" gradientUnits="userSpaceOnUse">
<stop stop-color="#C6C6C6"/>
<stop offset="1" stop-color="white"/>
</linearGradient>
<linearGradient id="paint151_linear_1248_454" x1="1360.5" y1="0" x2="1360.5" y2="80" gradientUnits="userSpaceOnUse">
<stop stop-color="#C6C6C6"/>
<stop offset="1" stop-color="white"/>
</linearGradient>
<linearGradient id="paint152_linear_1248_454" x1="1369.5" y1="0" x2="1369.5" y2="80" gradientUnits="userSpaceOnUse">
<stop stop-color="#C6C6C6"/>
<stop offset="1" stop-color="white"/>
</linearGradient>
<linearGradient id="paint153_linear_1248_454" x1="1378.5" y1="0" x2="1378.5" y2="80" gradientUnits="userSpaceOnUse">
<stop stop-color="#C6C6C6"/>
<stop offset="1" stop-color="white"/>
</linearGradient>
<linearGradient id="paint154_linear_1248_454" x1="1387.5" y1="0" x2="1387.5" y2="80" gradientUnits="userSpaceOnUse">
<stop stop-color="#C6C6C6"/>
<stop offset="1" stop-color="white"/>
</linearGradient>
<linearGradient id="paint155_linear_1248_454" x1="1396.5" y1="0" x2="1396.5" y2="80" gradientUnits="userSpaceOnUse">
<stop stop-color="#C6C6C6"/>
<stop offset="1" stop-color="white"/>
</linearGradient>
<linearGradient id="paint156_linear_1248_454" x1="1405.5" y1="0" x2="1405.5" y2="80" gradientUnits="userSpaceOnUse">
<stop stop-color="#C6C6C6"/>
<stop offset="1" stop-color="white"/>
</linearGradient>
<linearGradient id="paint157_linear_1248_454" x1="1414.5" y1="0" x2="1414.5" y2="80" gradientUnits="userSpaceOnUse">
<stop stop-color="#C6C6C6"/>
<stop offset="1" stop-color="white"/>
</linearGradient>
<linearGradient id="paint158_linear_1248_454" x1="1423.5" y1="0" x2="1423.5" y2="80" gradientUnits="userSpaceOnUse">
<stop stop-color="#C6C6C6"/>
<stop offset="1" stop-color="white"/>
</linearGradient>
<linearGradient id="paint159_linear_1248_454" x1="1432.5" y1="0" x2="1432.5" y2="80" gradientUnits="userSpaceOnUse">
<stop stop-color="#C6C6C6"/>
<stop offset="1" stop-color="white"/>
</linearGradient>
<linearGradient id="paint160_linear_1248_454" x1="1441.5" y1="0" x2="1441.5" y2="80" gradientUnits="userSpaceOnUse">
<stop stop-color="#C6C6C6"/>
<stop offset="1" stop-color="white"/>
</linearGradient>
<linearGradient id="paint161_linear_1248_454" x1="1450.5" y1="0" x2="1450.5" y2="80" gradientUnits="userSpaceOnUse">
<stop stop-color="#C6C6C6"/>
<stop offset="1" stop-color="white"/>
</linearGradient>
<linearGradient id="paint162_linear_1248_454" x1="1459.5" y1="0" x2="1459.5" y2="80" gradientUnits="userSpaceOnUse">
<stop stop-color="#C6C6C6"/>
<stop offset="1" stop-color="white"/>
</linearGradient>
<linearGradient id="paint163_linear_1248_454" x1="1468.5" y1="0" x2="1468.5" y2="80" gradientUnits="userSpaceOnUse">
<stop stop-color="#C6C6C6"/>
<stop offset="1" stop-color="white"/>
</linearGradient>
<linearGradient id="paint164_linear_1248_454" x1="1477.5" y1="0" x2="1477.5" y2="80" gradientUnits="userSpaceOnUse">
<stop stop-color="#C6C6C6"/>
<stop offset="1" stop-color="white"/>
</linearGradient>
<linearGradient id="paint165_linear_1248_454" x1="1486.5" y1="0" x2="1486.5" y2="80" gradientUnits="userSpaceOnUse">
<stop stop-color="#C6C6C6"/>
<stop offset="1" stop-color="white"/>
</linearGradient>
<linearGradient id="paint166_linear_1248_454" x1="1495.5" y1="0" x2="1495.5" y2="80" gradientUnits="userSpaceOnUse">
<stop stop-color="#C6C6C6"/>
<stop offset="1" stop-color="white"/>
</linearGradient>
</defs>
</svg>
